<svg width="23" height="40" viewBox="0 0 23 40" fill="none" xmlns="http://www.w3.org/2000/svg">
<path d="M9.3941 3.125C9.7391 3.125 10.0191 2.84562 10.0191 2.5C10.0191 2.15438 9.7391 1.875 9.3941 1.875H9.38785C9.04285 1.875 8.7666 2.15438 8.7666 2.5C8.7666 2.84562 9.0491 3.125 9.3941 3.125Z" fill="#582EFF"/>
<path d="M11.25 3.125H13.125C13.4706 3.125 13.75 2.84562 13.75 2.5C13.75 2.15438 13.4706 1.875 13.125 1.875H11.25C10.9044 1.875 10.625 2.15438 10.625 2.5C10.625 2.84562 10.9044 3.125 11.25 3.125Z" fill="#582EFF"/>
<path d="M18.7581 0.001875C18.755 0.001875 18.7531 0 18.75 0H3.75C1.68187 0 0 1.68187 0 3.75V35.625C0 38.0369 1.96313 40 4.375 40H18.125C20.5369 40 22.5 38.0369 22.5 35.625V3.75125C22.5 1.68562 20.8219 0.00625 18.7581 0.001875V0.001875ZM3.75 1.25H18.7438C18.7463 1.25 18.7475 1.25125 18.75 1.25125C20.1288 1.25125 21.25 2.3725 21.25 3.75125H1.25V3.75C1.25 2.37125 2.37125 1.25 3.75 1.25V1.25ZM18.125 36.25H11.25H4.375C2.65188 36.25 1.25 34.8481 1.25 33.125V32.5H11.25H21.25V33.125C21.25 34.8481 19.8481 36.25 18.125 36.25ZM1.25 5.00125H21.25V31.25H1.25V5.00125ZM18.125 38.75H4.375C2.86375 38.75 1.60063 37.6713 1.3125 36.2438C2.1025 37.0194 3.18375 37.5 4.375 37.5H18.125C19.3163 37.5 20.3975 37.0194 21.1875 36.2438C20.8994 37.6713 19.6362 38.75 18.125 38.75Z" fill="#582EFF"/>
<path d="M13.125 34.375C13.125 33.3412 12.2838 32.5 11.25 32.5C10.2162 32.5 9.375 33.3412 9.375 34.375C9.375 35.4088 10.2162 36.25 11.25 36.25C12.2838 36.25 13.125 35.4088 13.125 34.375ZM11.25 35C10.905 35 10.625 34.72 10.625 34.375C10.625 34.03 10.905 33.75 11.25 33.75C11.595 33.75 11.875 34.03 11.875 34.375C11.875 34.72 11.595 35 11.25 35Z" fill="#582EFF"/>
<path d="M5.30035 21.8715C5.30473 21.8715 5.30848 21.874 5.31285 21.874H17.1879C18.0497 21.874 18.7504 21.1734 18.7504 20.3115C18.7504 19.4496 18.0497 18.749 17.1879 18.749H5.31285C4.4516 18.749 3.75098 19.4496 3.75098 20.3109C3.75098 21.1678 4.44473 21.8646 5.30035 21.8715ZM17.1879 19.999C17.3597 19.999 17.5004 20.1396 17.5004 20.3115C17.5004 20.4834 17.3597 20.624 17.1879 20.624H5.3191C5.3166 20.624 5.31535 20.6228 5.31285 20.6228C5.14098 20.6228 5.00098 20.4828 5.00098 20.3109C5.00098 20.139 5.14098 19.999 5.31285 19.999H17.1879Z" fill="#582EFF"/>
<path d="M17.1879 22.499H5.31285C4.4516 22.499 3.75098 23.1996 3.75098 24.0609C3.75098 24.9178 4.44473 25.6146 5.30035 25.6215C5.30473 25.6215 5.30848 25.624 5.31285 25.624H17.1879C18.0497 25.624 18.7504 24.9234 18.7504 24.0615C18.7504 23.1996 18.0497 22.499 17.1879 22.499ZM5.3191 24.374C5.3166 24.374 5.31535 24.3728 5.31285 24.3728C5.14098 24.3728 5.00098 24.2328 5.00098 24.0609C5.00098 23.889 5.14098 23.749 5.31285 23.749H17.1879C17.3597 23.749 17.5004 23.8896 17.5004 24.0615C17.5004 24.2334 17.3597 24.374 17.1879 24.374H5.3191Z" fill="#582EFF"/>
<path d="M14.375 26.8745H8.125C7.77938 26.8745 7.5 27.1539 7.5 27.4995C7.5 27.8451 7.77938 28.1245 8.125 28.1245H14.375C14.7206 28.1245 15 27.8451 15 27.4995C15 27.1539 14.7206 26.8745 14.375 26.8745Z" fill="#582EFF"/>
<path d="M8.47035 16.499C8.47348 16.5021 8.47723 16.504 8.48035 16.5065C9.23535 17.1259 10.2004 17.499 11.251 17.499C13.6629 17.499 15.626 15.5359 15.626 13.124C15.626 10.7121 13.6629 8.74902 11.251 8.74902C8.8391 8.74902 6.87598 10.7121 6.87598 13.124C6.87535 14.4815 7.4966 15.6959 8.47035 16.499V16.499ZM9.70348 15.8228C10.0472 15.3184 10.621 14.999 11.251 14.999C11.8804 14.999 12.4541 15.319 12.7979 15.8221C12.3397 16.0865 11.816 16.249 11.2504 16.249C10.6847 16.249 10.1616 16.0865 9.70348 15.8228ZM11.2504 13.749C10.9054 13.749 10.6254 13.469 10.6254 13.124C10.6254 12.779 10.9054 12.499 11.2504 12.499C11.5954 12.499 11.8754 12.779 11.8754 13.124C11.8754 13.469 11.5954 13.749 11.2504 13.749ZM11.2504 9.99902C12.9735 9.99902 14.3754 11.4009 14.3754 13.124C14.3754 13.8259 14.1341 14.4665 13.7422 14.989C13.4879 14.6534 13.1654 14.3803 12.8035 14.1721C13.0072 13.8734 13.1254 13.5121 13.1254 13.124C13.1254 12.0903 12.2841 11.249 11.2504 11.249C10.2166 11.249 9.37535 12.0903 9.37535 13.124C9.37535 13.5121 9.4941 13.8734 9.69723 14.1734C9.33598 14.3815 9.01285 14.6546 8.7591 14.9903C8.3666 14.4671 8.12535 13.8259 8.12535 13.124C8.12535 11.4009 9.52723 9.99902 11.2504 9.99902Z" fill="#582EFF"/>
</svg>
